<?xml version="1.0" encoding="utf-8"?>
<!-- Generator: Adobe Illustrator 26.3.1, SVG Export Plug-In . SVG Version: 6.00 Build 0)  -->
<svg version="1.1" id="Слой_1" xmlns="http://www.w3.org/2000/svg" xmlns:xlink="http://www.w3.org/1999/xlink" x="0px" y="0px"
	 viewBox="0 0 16 16" style="enable-background:new 0 0 16 16;" xml:space="preserve">
<style type="text/css">
	.st0{fill:#8FA2D4;}
</style>
<path class="st0" d="M1.19,8.52C1.26,8.36,1.33,8.23,1.4,8.1c0.24-0.46,0.46-0.92,0.71-1.37c0.25-0.44,0.58-0.82,1.02-1.09
	c0.36-0.22,0.75-0.31,1.16-0.31c0.51,0,1.02,0,1.53,0c0.1,0,0.16-0.03,0.23-0.11c1.14-1.45,2.53-2.59,4.2-3.37
	c1.08-0.51,2.2-0.81,3.41-0.78c0.41,0.01,0.81,0,1.23,0c0,0.04,0.01,0.07,0.01,0.1c0,0.49,0,0.98,0,1.47
	c-0.01,1.08-0.31,2.09-0.77,3.06c-0.78,1.68-1.92,3.07-3.37,4.22c-0.08,0.06-0.12,0.13-0.12,0.24c0.01,0.49,0,0.97,0,1.46
	c0.01,0.79-0.3,1.42-0.91,1.89c-0.29,0.22-0.6,0.42-0.92,0.59c-0.41,0.23-0.84,0.42-1.26,0.63c-0.03,0.02-0.07,0.03-0.11,0.05
	c0-0.06,0-0.11,0-0.16c0-0.93,0-1.85,0-2.78c0-0.09-0.02-0.15-0.08-0.21C6.36,10.62,5.36,9.62,4.35,8.6
	C4.28,8.54,4.22,8.52,4.13,8.52c-0.92,0-1.85,0-2.77,0C1.31,8.52,1.26,8.52,1.19,8.52z M10.65,4.26c-0.59,0-1.06,0.48-1.06,1.06
	c0,0.59,0.48,1.07,1.08,1.06c0.59,0,1.06-0.48,1.05-1.07C11.71,4.73,11.24,4.26,10.65,4.26z"/>
<path class="st0" d="M2.13,13.85c0.24-1.22,0.55-2.39,1.6-3.16c0.52,0.52,1.05,1.05,1.57,1.57C4.52,13.29,3.38,13.65,2.13,13.85z"/>
</svg>
